<?xml version="1.0" encoding="UTF-8"?>
<svg xmlns="http://www.w3.org/2000/svg" viewBox="0 0 128 128" width="128" height="128">
  <defs>
    <linearGradient id="o" x1="0%" y1="0%" x2="100%" y2="100%">
      <stop offset="0%" stop-color="#FF4500"/>
      <stop offset="100%" stop-color="#FF6B35"/>
    </linearGradient>
    <radialGradient id="g" cx="35%" cy="35%" r="70%">
      <stop offset="0%" stop-color="#fff" stop-opacity="0.55"/>
      <stop offset="100%" stop-color="#fff" stop-opacity="0"/>
    </radialGradient>
  </defs>
  <rect width="128" height="128" rx="28" fill="#0A0A0B"/>
  <g transform="translate(64,66)">
    <line x1="0" y1="-44" x2="0" y2="-32" stroke="url(#o)" stroke-width="4" stroke-linecap="round"/>
    <circle cx="0" cy="-48" r="4.5" fill="url(#o)"/>
    <circle cx="0" cy="0" r="34" fill="url(#o)"/>
    <circle cx="-31" cy="-4" r="8" fill="url(#o)"/>
    <circle cx="31" cy="-4" r="8" fill="url(#o)"/>
    <circle cx="-31" cy="-4" r="3" fill="#0A0A0B"/>
    <circle cx="31" cy="-4" r="3" fill="#0A0A0B"/>
    <circle cx="-12" cy="-3" r="5.5" fill="#fff"/>
    <circle cx="12" cy="-3" r="5.5" fill="#fff"/>
    <circle cx="-11" cy="-2" r="2.4" fill="#0A0A0B"/>
    <circle cx="13" cy="-2" r="2.4" fill="#0A0A0B"/>
    <path d="M -11 11 Q 0 19 11 11" stroke="#0A0A0B" stroke-width="2.6" fill="none" stroke-linecap="round"/>
    <g transform="translate(15,15)">
      <circle cx="0" cy="0" r="14" fill="url(#g)" stroke="#fff" stroke-width="2.4"/>
      <line x1="10" y1="10" x2="20" y2="20" stroke="#fff" stroke-width="3.5" stroke-linecap="round"/>
    </g>
  </g>
</svg>
