<?xml version="1.0" encoding="UTF-8"?>
<svg xmlns="http://www.w3.org/2000/svg" viewBox="0 0 560 140" width="560" height="140">
  <defs>
    <linearGradient id="orange" x1="0%" y1="0%" x2="100%" y2="100%">
      <stop offset="0%" stop-color="#FF4500"/>
      <stop offset="100%" stop-color="#FF6B35"/>
    </linearGradient>
    <radialGradient id="lensGlass" cx="35%" cy="35%" r="70%">
      <stop offset="0%" stop-color="#ffffff" stop-opacity="0.55"/>
      <stop offset="60%" stop-color="#ffffff" stop-opacity="0.05"/>
      <stop offset="100%" stop-color="#ffffff" stop-opacity="0"/>
    </radialGradient>
    <style>
      @import url('https://fonts.googleapis.com/css2?family=Inter:wght@600;800&amp;display=swap');
      .word { font-family: 'Inter', -apple-system, 'Segoe UI', sans-serif; font-weight: 800; font-size: 48px; letter-spacing: -1.5px; }
      .tag  { font-family: 'Inter', sans-serif; font-weight: 600; font-size: 11px; letter-spacing: 3px; }
    </style>
  </defs>

  <!-- Mascot -->
  <g transform="translate(70,70)">
    <line x1="0" y1="-58" x2="0" y2="-44" stroke="url(#orange)" stroke-width="4" stroke-linecap="round"/>
    <circle cx="0" cy="-62" r="5" fill="url(#orange)"/>
    <circle cx="0" cy="0" r="44" fill="url(#orange)"/>
    <circle cx="-40" cy="-6" r="10" fill="url(#orange)"/>
    <circle cx="40" cy="-6" r="10" fill="url(#orange)"/>
    <circle cx="-40" cy="-6" r="4" fill="#0A0A0B"/>
    <circle cx="40" cy="-6" r="4" fill="#0A0A0B"/>
    <circle cx="-15" cy="-4" r="7" fill="#ffffff"/>
    <circle cx="15" cy="-4" r="7" fill="#ffffff"/>
    <circle cx="-14" cy="-3" r="3" fill="#0A0A0B"/>
    <circle cx="16" cy="-3" r="3" fill="#0A0A0B"/>
    <path d="M -14 14 Q 0 24 14 14" stroke="#0A0A0B" stroke-width="3" fill="none" stroke-linecap="round"/>
    <g transform="translate(20,20)">
      <circle cx="0" cy="0" r="18" fill="url(#lensGlass)" stroke="#ffffff" stroke-width="3"/>
      <line x1="13" y1="13" x2="26" y2="26" stroke="#ffffff" stroke-width="4.5" stroke-linecap="round"/>
    </g>
  </g>

  <!-- Wordmark -->
  <text x="146" y="84" class="word" fill="#F5F5F7">Reddit<tspan fill="url(#orange)">Lens</tspan></text>
  <text x="148" y="108" class="tag" fill="#8E8EA0">DISCOVER WHAT REDDIT WANTS</text>
</svg>
